<svg id="SvgjsSvg1018" width="288" height="288" xmlns="http://www.w3.org/2000/svg" version="1.1" xmlns:xlink="http://www.w3.org/1999/xlink" xmlns:svgjs="http://svgjs.com/svgjs"><defs id="SvgjsDefs1019"></defs><g id="SvgjsG1020"><svg xmlns="http://www.w3.org/2000/svg" enable-background="new 0 0 100 100" viewBox="0 0 100 100" width="288" height="288"><circle cx="51" cy="51" r="48.4" fill="#482ff7" class="color727272 svgShape"></circle><path fill="#ffffff" d="M76.6,80.5V33.3c0-0.7-0.3-1.3-0.8-1.6L65.1,21.1c-0.3-0.3-0.7-0.5-1.1-0.5c-0.1,0-0.3,0-0.4,0H25.4v60
	L76.6,80.5L76.6,80.5z M33,62.1h27.2v4.1H33V62.1z M70,45.8H33v-4.1h37V45.8z M70,51.6H33v-4.1h37V51.6z M70,57.3H33v-4.1h37V57.3z
	 M72.6,35h-9.8v-9.7L72.6,35z" class="colorfff svgShape"></path></svg></g></svg>