<?xml version="1.0" encoding="UTF-8" standalone="no"?><!DOCTYPE svg PUBLIC "-//W3C//DTD SVG 1.1//EN" "http://www.w3.org/Graphics/SVG/1.1/DTD/svg11.dtd"><svg width="100px" height="100px" viewBox="0 0 100 100" version="1.1" xmlns="http://www.w3.org/2000/svg" xmlns:xlink="http://www.w3.org/1999/xlink" xml:space="preserve" style="fill-rule:evenodd;clip-rule:evenodd;stroke-linejoin:round;stroke-miterlimit:2;">

<circle fill="none" stroke="#ffd40f" stroke-miterlimit="10" stroke-width="5" stroke-linecap="round" stroke-dasharray="22" cx="50" cy="50" r="48.02">
	<animateTransform attributeName="transform"
		attributeType="XML"
		type="rotate"
		from="0 50 50"
		to="360 50 50"
		dur="5s"
		repeatCount="indefinite" />

</circle>
<circle fill="none" stroke="#002064" stroke-miterlimit="10" stroke-width="4" stroke-linecap="round" stroke-dasharray="22" cx="50" cy="50" r="43">
	<animateTransform attributeName="transform"
		attributeType="XML"
		type="rotate"
		from="360 50 50"
		to="0 50 50"
		dur="3s"
		repeatCount="indefinite" />

</circle>

<circle fill="#002064" cx="50" cy="50" r="42" />


<path d="M48.55,31.21l1.611,0l1.047,0.322l0.886,-0.08l0.322,-0.081l2.095,0l1.449,0.403l1.853,0.805l1.611,0.725l1.691,0.564l0.967,0.081l0.725,0.161l0.725,0.08l1.047,0l0.161,-0.161l0.886,-0.161l1.208,-0.322l-0.161,0.403l-0.886,0.886l0.403,0.161l-0.242,0.403l-0.242,0.241l-0.161,0l-0.08,0.242l-0.161,-0.161l-0.484,0.08l-0.402,0.242l-0.161,0.322l-1.128,0.322l-0.081,-0.08l-2.577,-0.161l-1.933,-0.645l-1.933,-1.047l-1.208,-0.805l-1.128,-0.645l-0.967,-0.402l-1.208,-0l-0.08,0.08l-0,0.806l0.161,0.886l-0,1.127l0.805,0.081l0.886,-0.081l0.403,0.403l0.886,0.242l0.483,0.322l0.483,0.725l0.645,1.208l0.483,0.644l0,1.128l0.161,0.886l0.322,0.725l0,1.691l-0.241,0.564l-0,0.403l0.966,0.403l0.645,0.241l2.819,0.483l0.161,0.806l1.611,0.322l2.497,0.483l2.013,0.323l0.484,-0l0.241,0.161l1.531,0.241l0.08,0.081l0,1.047l-0.403,-0.161l-1.047,-0.081l-0.725,-0.241l-0.725,-0.081l-0.886,-0.242l-3.544,-0.644l-0.644,-0.08l-0.725,-0l-0.161,0.402l-1.45,-0.161l-1.288,-0.161l-0,0.886l2.496,0.161l1.611,0.403l1.289,0.644l1.128,0.806l1.691,1.691l0.483,0.645l0.564,0.08l0.725,-0.403l0.242,-0.161l0.886,-0.08l0.241,-0.081l1.289,0l0.081,-0.241l1.047,0.241l1.611,0.322l1.852,0.645l1.128,0.564l1.369,0.805l1.853,0.967l1.691,0.644l0.645,0.161l2.335,-0l1.45,-0.403l1.611,-0.644l0.806,-0.483l0.161,0.322l-0.242,0.564l-0.242,0.322l0.323,0.241l-0.242,0.645l-0.967,1.047l-0.725,0.564l-0.724,0.322l-2.739,0.805l-0.564,0.081l-1.772,-0l-1.45,-0.242l-1.53,-0.564l-1.53,-0.724l-1.692,-1.048l-1.772,-1.047l-0.161,0l-0.403,-0.644l-0.805,-0.322l-0.725,-0.081l-1.45,-0.483l-0.564,0.081l-0.161,0.241l0.081,0.483l0.564,0.725l0.402,0.484l-0.161,1.047l-0.322,0.402l0,1.048l0.242,1.772l0.241,2.416l0.323,1.611l0.644,1.289l0.161,0.402l0.322,0.161l0.564,0.484l1.128,0.241l1.611,0.161l0.724,0.806l1.128,1.933l0.161,0.403l0.322,0.161l0.725,0.644l0.725,0.483l0.483,0.806l0.162,0.161l0.241,-0.161l0.322,0.483l0.081,0.725l0.564,-0l0.886,0.564l0.886,0.644l0.564,0.564l0.161,0.564l0.966,0.966l0.242,0.806l-0.081,0.564l-0.241,0.241l-2.095,0.081l-0.322,-0.322l-0.966,-0.161l-0,0.161l-0.242,-0.081l0,-0.161l-0.322,-0.161l-0.806,-0.725l-0.644,-0.564l-0.564,-1.047l-0.886,-1.128l-0.886,-1.208l-1.047,-1.691l-0.564,-0.725l-0.402,-0.322l-1.209,-0.645l-1.852,-0.402l-2.819,-0.967l-2.175,-1.128l-1.128,-0.724l-0.483,-0.081l-0.644,-0.644l-0.322,-0.242l-0.403,-0.161l-0.081,-0.483l-0.322,-0.161l-0.644,-0.484l-0.081,-0.322l-0.322,-0.161l-0.403,-0.242l-0.322,-0.483l-1.127,-1.128l-1.37,-1.047l-1.047,-0.563l-7.571,-0l-0.322,0.241l-0.725,0l-0.242,-0.161l-2.013,0l-2.095,-0.161l-1.449,-0.161l-0.725,-0.161l-0.161,-0.403l-0.564,-0.242l-0.725,-0.08l-0.645,-0.161l-0.402,-0.403l-1.128,-0.805l-0.725,-0.967l-1.691,-0.564l-1.047,0l-0.081,0.403l0.322,0.805l0.484,0.806l0.161,1.53l0.161,0.322l0.805,-0.08l0.242,-0.242l0.966,0.161l1.128,0.403l0.242,0l-0,0.322l0.322,0.161l0.322,0.323l0.242,0.08l0.322,0.564l-0.081,0.886l-0.483,0.322l-0.483,0.242l-0.081,0.161l-1.047,-0l-0.403,-0.322l-1.288,-0.484l-0.886,-0.241l-0.886,-0.564l-0.725,-0.886l-0.806,-0.644l-0.644,-0.564l-0.161,-0.806l-0.242,-2.738l-0.08,-0.403l-0.967,-0l-0.08,0.161l-0.242,0l-0,0.161l-0.725,0.403l-0.725,0.564l-0.242,0.241l-0.563,0.161l-1.047,0.967l-0.162,-0l-0.161,0.483l-0.402,0.725l-1.611,0.564l-0.242,0.242l-0.161,-0l-0.161,0.483l-0.403,0.644l-0.644,0.564l-1.369,0.644l-1.048,0l-0.161,-0.161l-0.08,-0.322l-0.483,-0.161l-0,-0.966l0.483,-0.806l1.369,-1.369l0.322,-0.242l0.161,0l0.242,-0.966l0.725,-0.645l2.014,-1.127l2.013,-1.37l0.725,-0.563l0.161,-0l0.161,-0.323l0.403,-0.644l0.161,-0.161l0.081,0.161l0.644,-0.322l0.967,-0.322l-0,-0.564l0.322,-0.645l0.322,-0.161l0.564,-0.563l0.966,-0.242l1.208,0.805l1.128,0.645l0.644,-0l0.162,-0.322l0.241,-0.403l0.242,-1.369l-0,-0.564l-0.806,-0.886l-0.241,-0.322l-0,-0.162l-0.645,-0.08l-0.322,0.08l-0.161,0.323l-0.242,0.563l-0.644,0.162l-0.242,0.241l-0.724,-0.161l-0.242,-0.242l-0.483,-0.161l-0,-0.322l-0.886,0l-0.161,0.483l-0.323,0.323l-0.241,0.402l-0.725,0.242l-1.208,-0l-0.242,-0.242l0,-0.241l-0.564,0.161l-0.322,0.644l-0.483,0.483l-0.886,0.081l-1.37,-0.483l-0.805,-0.806l-0.483,-0.886l-0.322,-0.886l0.08,-0.886l0.081,-0.161l0.08,-0.886l0.483,-0.483l0.162,-0l0.241,-0.725l0.483,-1.128l0.323,-1.047l0.08,-1.691l0.161,-0.322l-2.013,-0.403l-7.33,-1.53l-2.98,-0.645l-5.558,-1.127l-0.241,-0.242l0.08,-0.403l1.289,0l4.027,0.725l9.424,1.611l3.544,0.644l1.047,0l0.161,-0.322l0.081,-0.08l-0,-1.128l0.161,-0.161l0.725,-0.081l-0.323,-0.805l0,-1.047l0.242,-0.161l0.644,0.644l0.162,-0.322l0.241,-0.725l0.322,-0.161l0.403,0.242l0.322,0.483l0.725,1.53l0.161,0.161l0,0.242l0.886,-0.322l2.175,-0.322l2.014,-0.162l0.161,-0.08l-0,0.242l1.288,-0.162l0.323,0.403l0.805,0.161l0.242,0.161l1.53,0.161l0.161,0.484l0.886,0.241l0.725,0.242l0.886,0.161l0,0.483l0.322,0.161l1.208,0.725l0.967,0.242l0.161,-0.322l1.047,-1.45l0.403,-0.483l0.322,-0.081l0.644,0.081l0.242,-0.081l0.161,-0.644l-0.322,-0.161l-0.403,-0.484l0,-0.161l-0.322,-0.161l-0.483,-0.564l-0.806,-1.772l-0.161,-0.805l0.564,-0.483l0.725,-0.886l0.644,-0.645l0.564,-0.322Z" style="fill:#ffd40f;fill-rule:nonzero;"/><path d="M32.602,45.145l0.483,-0l-0.08,0.483l-0.322,0.483l-0.564,0.242l-0.403,-0l0,-0.322l0.886,-0.886Z" style="fill:#002064;fill-rule:nonzero;"/></svg>
