<svg id="SvgjsSvg1043" width="288" height="288" xmlns="http://www.w3.org/2000/svg" version="1.1" xmlns:xlink="http://www.w3.org/1999/xlink" xmlns:svgjs="http://svgjs.com/svgjs"><defs id="SvgjsDefs1044"></defs><g id="SvgjsG1045"><svg xmlns="http://www.w3.org/2000/svg" enable-background="new 0 0 100 100" viewBox="0 0 100 100" width="288" height="288"><circle cx="50.1" cy="50.5" r="48.4" fill="#018f92" class="color727272 svgShape"></circle><path fill="#ffffff" d="M71,49V28.8c0-2.8-2.3-5.1-5.1-5.1H28.1c-2.8,0-5.1,2.3-5.1,5.1v24.5c0,2.8,2.3,5.1,5.1,5.1h4.6h0.5h0.4v12
		l9.3-12h0.7l0,0h0.2h6.4v-5c0-2.4,1.9-4.4,4.3-4.4C54.5,49,71,49,71,49z M48.8,49.3h-4.7v-4.7h4.7V49.3z M52.4,36.5
		c-0.3,0.6-0.6,1.2-1.1,1.8l-2,2.5c-0.1,0.2-0.2,0.4-0.3,0.6c-0.1,0.3-0.2,0.5-0.2,0.7v0.3h-4.7v-0.7c0-1.2,0.4-2.3,1.2-3.2l2-2.4
		c0.2-0.3,0.4-0.5,0.5-0.8C48,35,48,34.7,48,34.5c0-0.5-0.1-0.9-0.4-1.3c-0.3-0.3-0.7-0.5-1.3-0.5s-1,0.2-1.3,0.5
		c-0.3,0.4-0.4,0.8-0.4,1.5h-4.7c0-1.9,0.6-3.5,1.9-4.6c1.2-1.1,2.8-1.7,4.6-1.7s3.3,0.5,4.6,1.6s1.9,2.6,1.9,4.5
		C52.8,35.3,52.7,35.9,52.4,36.5z" class="colorfff svgShape"></path><path fill="#ffffff" d="M76.1,50.3H54.6c-1.6,0-2.9,1.4-2.9,3v16.6c0,1.7,1.3,3.1,2.9,3.1h8.8h2.9h1.3l5.4,5.3V73h1.4h0.2h1.5
		c1.6,0,2.9-1.4,2.9-3.1V53.4C79,51.7,77.7,50.3,76.1,50.3z M66.6,67.3h-3v-2.9h3V67.3z M66.1,63H64l-0.8-8.5h3.7L66.1,63z" class="colorfff svgShape"></path></svg></g></svg>