<svg id="SvgjsSvg1037" width="288" height="288" xmlns="http://www.w3.org/2000/svg" version="1.1" xmlns:xlink="http://www.w3.org/1999/xlink" xmlns:svgjs="http://svgjs.com/svgjs"><defs id="SvgjsDefs1038"></defs><g id="SvgjsG1039"><svg xmlns="http://www.w3.org/2000/svg" enable-background="new 0 0 100 100" viewBox="0 0 100 100" width="288" height="288"><circle cx="50.1" cy="50.5" r="48.4" fill="#7d0094" class="color727272 svgShape"></circle><path fill="#ffffff" d="M68.6 24H29.4c-3.5 0-6.4 2.9-6.4 6.4v5.2h52v-5.2C75 26.9 72.1 24 68.6 24zM63.5 30.7h-1.8v-1.8h1.8V30.7zM67.2 30.7h-1.8v-1.8h1.8V30.7zM70.8 30.7H69v-1.8h1.8V30.7zM23 36.5v33.1c0 3.5 2.9 6.4 6.4 6.4h39.2c3.5 0 6.4-2.9 6.4-6.4V36.5H23zM31.8 65.6h-3.1v-3.1h3.1V65.6zM31.8 57.6h-3.1v-3.1h3.1V57.6zM31.8 48.9h-3.1v-3.1h3.1V48.9zM69.4 65.6H36.6v-3.1h32.8C69.4 62.5 69.4 65.6 69.4 65.6zM69.4 57.6H36.6v-3.1h32.8C69.4 54.5 69.4 57.6 69.4 57.6zM69.4 48.9H36.6v-3.1h32.8C69.4 45.8 69.4 48.9 69.4 48.9z" class="colorfff svgShape"></path></svg></g></svg>